<mxfile host="app.diagrams.net" modified="2024-04-15T23:45:31.279Z" agent="Mozilla/5.0 (Windows NT 10.0; Win64; x64) AppleWebKit/537.36 (KHTML, like Gecko) Chrome/121.0.0.0 Safari/537.36 OPR/107.0.0.0" etag="urxWzSj1GjhJYgtuapeh" version="24.2.5" type="github">
  <diagram id="R2lEEEUBdFMjLlhIrx00" name="Page-1">
    <mxGraphModel dx="1393" dy="766" grid="1" gridSize="10" guides="1" tooltips="1" connect="1" arrows="1" fold="1" page="1" pageScale="1" pageWidth="850" pageHeight="1100" math="0" shadow="0" extFonts="Permanent Marker^https://fonts.googleapis.com/css?family=Permanent+Marker">
      <root>
        <mxCell id="0" />
        <mxCell id="1" parent="0" />
        <mxCell id="twWEcnRU9X74Tp9LB-RC-1" value="Medicamento" style="whiteSpace=wrap;html=1;align=center;" vertex="1" parent="1">
          <mxGeometry x="370" y="470" width="100" height="40" as="geometry" />
        </mxCell>
        <mxCell id="twWEcnRU9X74Tp9LB-RC-2" value="Domicilio" style="whiteSpace=wrap;html=1;align=center;" vertex="1" parent="1">
          <mxGeometry x="600" y="250" width="100" height="40" as="geometry" />
        </mxCell>
        <mxCell id="twWEcnRU9X74Tp9LB-RC-30" value="" style="edgeStyle=orthogonalEdgeStyle;rounded=0;orthogonalLoop=1;jettySize=auto;html=1;entryX=0;entryY=0.5;entryDx=0;entryDy=0;endArrow=none;endFill=0;" edge="1" parent="1" source="twWEcnRU9X74Tp9LB-RC-3" target="twWEcnRU9X74Tp9LB-RC-28">
          <mxGeometry relative="1" as="geometry">
            <Array as="points">
              <mxPoint x="670" y="430" />
              <mxPoint x="710" y="430" />
            </Array>
          </mxGeometry>
        </mxCell>
        <mxCell id="twWEcnRU9X74Tp9LB-RC-31" value="" style="edgeStyle=orthogonalEdgeStyle;rounded=0;orthogonalLoop=1;jettySize=auto;html=1;entryX=1;entryY=0.5;entryDx=0;entryDy=0;endArrow=none;endFill=0;" edge="1" parent="1" source="twWEcnRU9X74Tp9LB-RC-3" target="twWEcnRU9X74Tp9LB-RC-26">
          <mxGeometry relative="1" as="geometry">
            <Array as="points">
              <mxPoint x="660" y="380" />
              <mxPoint x="660" y="380" />
            </Array>
          </mxGeometry>
        </mxCell>
        <mxCell id="twWEcnRU9X74Tp9LB-RC-69" value="" style="edgeStyle=orthogonalEdgeStyle;rounded=0;orthogonalLoop=1;jettySize=auto;html=1;entryX=0.25;entryY=1;entryDx=0;entryDy=0;endArrow=none;endFill=0;" edge="1" parent="1" source="twWEcnRU9X74Tp9LB-RC-3" target="twWEcnRU9X74Tp9LB-RC-2">
          <mxGeometry relative="1" as="geometry" />
        </mxCell>
        <mxCell id="twWEcnRU9X74Tp9LB-RC-3" value="Propietario" style="whiteSpace=wrap;html=1;align=center;" vertex="1" parent="1">
          <mxGeometry x="570" y="350" width="100" height="40" as="geometry" />
        </mxCell>
        <mxCell id="twWEcnRU9X74Tp9LB-RC-16" value="" style="edgeStyle=orthogonalEdgeStyle;rounded=0;orthogonalLoop=1;jettySize=auto;html=1;endArrow=none;endFill=0;exitX=0.75;exitY=0;exitDx=0;exitDy=0;" edge="1" parent="1" source="twWEcnRU9X74Tp9LB-RC-4" target="twWEcnRU9X74Tp9LB-RC-14">
          <mxGeometry relative="1" as="geometry">
            <Array as="points">
              <mxPoint x="445" y="100" />
              <mxPoint x="440" y="100" />
            </Array>
          </mxGeometry>
        </mxCell>
        <mxCell id="twWEcnRU9X74Tp9LB-RC-17" value="" style="edgeStyle=orthogonalEdgeStyle;rounded=0;orthogonalLoop=1;jettySize=auto;html=1;endArrow=none;endFill=0;exitX=0.87;exitY=0;exitDx=0;exitDy=0;exitPerimeter=0;" edge="1" parent="1" source="twWEcnRU9X74Tp9LB-RC-4" target="twWEcnRU9X74Tp9LB-RC-11">
          <mxGeometry relative="1" as="geometry">
            <mxPoint x="460" y="150" as="sourcePoint" />
            <Array as="points">
              <mxPoint x="459" y="140" />
              <mxPoint x="459" y="70" />
              <mxPoint x="630" y="70" />
            </Array>
          </mxGeometry>
        </mxCell>
        <mxCell id="twWEcnRU9X74Tp9LB-RC-19" value="" style="edgeStyle=orthogonalEdgeStyle;rounded=0;orthogonalLoop=1;jettySize=auto;html=1;exitX=1;exitY=1;exitDx=0;exitDy=0;" edge="1" parent="1" source="twWEcnRU9X74Tp9LB-RC-4" target="twWEcnRU9X74Tp9LB-RC-10">
          <mxGeometry relative="1" as="geometry">
            <Array as="points">
              <mxPoint x="470" y="80" />
            </Array>
          </mxGeometry>
        </mxCell>
        <mxCell id="twWEcnRU9X74Tp9LB-RC-77" style="edgeStyle=orthogonalEdgeStyle;rounded=0;orthogonalLoop=1;jettySize=auto;html=1;exitX=1;exitY=0.75;exitDx=0;exitDy=0;entryX=0.5;entryY=0;entryDx=0;entryDy=0;endArrow=none;endFill=0;" edge="1" parent="1" source="twWEcnRU9X74Tp9LB-RC-4" target="twWEcnRU9X74Tp9LB-RC-2">
          <mxGeometry relative="1" as="geometry" />
        </mxCell>
        <mxCell id="twWEcnRU9X74Tp9LB-RC-4" value="Ciudad" style="whiteSpace=wrap;html=1;align=center;" vertex="1" parent="1">
          <mxGeometry x="370" y="140" width="100" height="40" as="geometry" />
        </mxCell>
        <mxCell id="twWEcnRU9X74Tp9LB-RC-57" value="" style="edgeStyle=orthogonalEdgeStyle;rounded=0;orthogonalLoop=1;jettySize=auto;html=1;exitX=0.75;exitY=1;exitDx=0;exitDy=0;endArrow=none;endFill=0;" edge="1" parent="1" source="twWEcnRU9X74Tp9LB-RC-5" target="twWEcnRU9X74Tp9LB-RC-56">
          <mxGeometry relative="1" as="geometry">
            <Array as="points">
              <mxPoint x="370" y="370" />
            </Array>
          </mxGeometry>
        </mxCell>
        <mxCell id="twWEcnRU9X74Tp9LB-RC-76" style="edgeStyle=orthogonalEdgeStyle;rounded=0;orthogonalLoop=1;jettySize=auto;html=1;exitX=0.75;exitY=0;exitDx=0;exitDy=0;entryX=0;entryY=0.5;entryDx=0;entryDy=0;endArrow=none;endFill=0;" edge="1" parent="1" source="twWEcnRU9X74Tp9LB-RC-5" target="twWEcnRU9X74Tp9LB-RC-2">
          <mxGeometry relative="1" as="geometry" />
        </mxCell>
        <mxCell id="twWEcnRU9X74Tp9LB-RC-5" value="Farmacia" style="whiteSpace=wrap;html=1;align=center;" vertex="1" parent="1">
          <mxGeometry x="190" y="330" width="100" height="40" as="geometry" />
        </mxCell>
        <mxCell id="twWEcnRU9X74Tp9LB-RC-6" value="Droga" style="whiteSpace=wrap;html=1;align=center;" vertex="1" parent="1">
          <mxGeometry x="610" y="600" width="100" height="40" as="geometry" />
        </mxCell>
        <mxCell id="twWEcnRU9X74Tp9LB-RC-32" value="" style="edgeStyle=orthogonalEdgeStyle;rounded=0;orthogonalLoop=1;jettySize=auto;html=1;endArrow=none;endFill=0;entryX=0;entryY=0.5;entryDx=0;entryDy=0;" edge="1" parent="1" source="twWEcnRU9X74Tp9LB-RC-8" target="twWEcnRU9X74Tp9LB-RC-4">
          <mxGeometry relative="1" as="geometry">
            <Array as="points">
              <mxPoint x="370" y="150" />
            </Array>
          </mxGeometry>
        </mxCell>
        <mxCell id="twWEcnRU9X74Tp9LB-RC-8" value="Código Postal" style="ellipse;whiteSpace=wrap;html=1;align=center;" vertex="1" parent="1">
          <mxGeometry x="250" y="110" width="100" height="40" as="geometry" />
        </mxCell>
        <mxCell id="twWEcnRU9X74Tp9LB-RC-10" value="Superficie" style="ellipse;whiteSpace=wrap;html=1;align=center;" vertex="1" parent="1">
          <mxGeometry x="670" y="60" width="100" height="40" as="geometry" />
        </mxCell>
        <mxCell id="twWEcnRU9X74Tp9LB-RC-11" value="Cantidad de Habitantes" style="ellipse;whiteSpace=wrap;html=1;align=center;" vertex="1" parent="1">
          <mxGeometry x="580" y="10" width="100" height="40" as="geometry" />
        </mxCell>
        <mxCell id="twWEcnRU9X74Tp9LB-RC-20" value="" style="edgeStyle=orthogonalEdgeStyle;rounded=0;orthogonalLoop=1;jettySize=auto;html=1;endArrow=none;endFill=0;" edge="1" parent="1" source="twWEcnRU9X74Tp9LB-RC-12" target="twWEcnRU9X74Tp9LB-RC-4">
          <mxGeometry relative="1" as="geometry">
            <Array as="points">
              <mxPoint x="390" y="100" />
              <mxPoint x="390" y="100" />
            </Array>
          </mxGeometry>
        </mxCell>
        <mxCell id="twWEcnRU9X74Tp9LB-RC-12" value="Nombre (ID)" style="ellipse;whiteSpace=wrap;html=1;align=center;" vertex="1" parent="1">
          <mxGeometry x="220" y="20" width="100" height="40" as="geometry" />
        </mxCell>
        <mxCell id="twWEcnRU9X74Tp9LB-RC-15" value="" style="edgeStyle=orthogonalEdgeStyle;rounded=0;orthogonalLoop=1;jettySize=auto;html=1;endArrow=none;endFill=0;" edge="1" parent="1" source="twWEcnRU9X74Tp9LB-RC-13" target="twWEcnRU9X74Tp9LB-RC-5">
          <mxGeometry relative="1" as="geometry">
            <Array as="points">
              <mxPoint x="230" y="390" />
              <mxPoint x="230" y="390" />
            </Array>
          </mxGeometry>
        </mxCell>
        <mxCell id="twWEcnRU9X74Tp9LB-RC-13" value="Nombre Unico" style="ellipse;whiteSpace=wrap;html=1;align=center;" vertex="1" parent="1">
          <mxGeometry x="230" y="420" width="100" height="40" as="geometry" />
        </mxCell>
        <mxCell id="twWEcnRU9X74Tp9LB-RC-14" value="Provincia (ID)" style="ellipse;whiteSpace=wrap;html=1;align=center;" vertex="1" parent="1">
          <mxGeometry x="390" width="100" height="40" as="geometry" />
        </mxCell>
        <mxCell id="twWEcnRU9X74Tp9LB-RC-34" value="" style="edgeStyle=orthogonalEdgeStyle;rounded=0;orthogonalLoop=1;jettySize=auto;html=1;endArrow=none;endFill=0;entryX=1;entryY=1;entryDx=0;entryDy=0;" edge="1" parent="1" source="twWEcnRU9X74Tp9LB-RC-25" target="twWEcnRU9X74Tp9LB-RC-2">
          <mxGeometry relative="1" as="geometry">
            <Array as="points">
              <mxPoint x="700" y="240" />
            </Array>
          </mxGeometry>
        </mxCell>
        <mxCell id="twWEcnRU9X74Tp9LB-RC-25" value="Número" style="ellipse;whiteSpace=wrap;html=1;align=center;" vertex="1" parent="1">
          <mxGeometry x="730" y="220" width="100" height="40" as="geometry" />
        </mxCell>
        <mxCell id="twWEcnRU9X74Tp9LB-RC-26" value="DNI unico" style="ellipse;whiteSpace=wrap;html=1;align=center;" vertex="1" parent="1">
          <mxGeometry x="740" y="360" width="100" height="40" as="geometry" />
        </mxCell>
        <mxCell id="twWEcnRU9X74Tp9LB-RC-33" value="" style="edgeStyle=orthogonalEdgeStyle;rounded=0;orthogonalLoop=1;jettySize=auto;html=1;entryX=0.91;entryY=1;entryDx=0;entryDy=0;entryPerimeter=0;endArrow=none;endFill=0;" edge="1" parent="1" source="twWEcnRU9X74Tp9LB-RC-27" target="twWEcnRU9X74Tp9LB-RC-2">
          <mxGeometry relative="1" as="geometry">
            <Array as="points">
              <mxPoint x="691" y="350" />
            </Array>
          </mxGeometry>
        </mxCell>
        <mxCell id="twWEcnRU9X74Tp9LB-RC-27" value="Calle" style="ellipse;whiteSpace=wrap;html=1;align=center;" vertex="1" parent="1">
          <mxGeometry x="730" y="310" width="100" height="40" as="geometry" />
        </mxCell>
        <mxCell id="twWEcnRU9X74Tp9LB-RC-28" value="Nombre" style="ellipse;whiteSpace=wrap;html=1;align=center;" vertex="1" parent="1">
          <mxGeometry x="710" y="430" width="100" height="40" as="geometry" />
        </mxCell>
        <mxCell id="twWEcnRU9X74Tp9LB-RC-60" value="" style="edgeStyle=orthogonalEdgeStyle;rounded=0;orthogonalLoop=1;jettySize=auto;html=1;endArrow=none;endFill=0;" edge="1" parent="1" source="twWEcnRU9X74Tp9LB-RC-38" target="twWEcnRU9X74Tp9LB-RC-59">
          <mxGeometry relative="1" as="geometry" />
        </mxCell>
        <mxCell id="twWEcnRU9X74Tp9LB-RC-38" value="Cantidad" style="ellipse;whiteSpace=wrap;html=1;align=center;" vertex="1" parent="1">
          <mxGeometry x="660" y="510" width="100" height="40" as="geometry" />
        </mxCell>
        <mxCell id="twWEcnRU9X74Tp9LB-RC-41" value="" style="edgeStyle=orthogonalEdgeStyle;rounded=0;orthogonalLoop=1;jettySize=auto;html=1;endArrow=none;endFill=0;entryX=0.75;entryY=1;entryDx=0;entryDy=0;exitX=0.5;exitY=0;exitDx=0;exitDy=0;" edge="1" parent="1" source="twWEcnRU9X74Tp9LB-RC-39" target="twWEcnRU9X74Tp9LB-RC-1">
          <mxGeometry relative="1" as="geometry">
            <mxPoint x="350" y="470" as="sourcePoint" />
            <Array as="points">
              <mxPoint x="410" y="540" />
              <mxPoint x="425" y="540" />
            </Array>
          </mxGeometry>
        </mxCell>
        <mxCell id="twWEcnRU9X74Tp9LB-RC-39" value="ID único" style="ellipse;whiteSpace=wrap;html=1;align=center;" vertex="1" parent="1">
          <mxGeometry x="360" y="600" width="100" height="40" as="geometry" />
        </mxCell>
        <mxCell id="twWEcnRU9X74Tp9LB-RC-42" value="" style="edgeStyle=orthogonalEdgeStyle;rounded=0;orthogonalLoop=1;jettySize=auto;html=1;endArrow=none;endFill=0;entryX=0;entryY=1;entryDx=0;entryDy=0;" edge="1" parent="1" source="twWEcnRU9X74Tp9LB-RC-40" target="twWEcnRU9X74Tp9LB-RC-1">
          <mxGeometry relative="1" as="geometry">
            <mxPoint x="300" y="510" as="targetPoint" />
          </mxGeometry>
        </mxCell>
        <mxCell id="twWEcnRU9X74Tp9LB-RC-40" value="Nombre Comercial" style="ellipse;whiteSpace=wrap;html=1;align=center;" vertex="1" parent="1">
          <mxGeometry x="240" y="570" width="100" height="40" as="geometry" />
        </mxCell>
        <mxCell id="twWEcnRU9X74Tp9LB-RC-48" value="" style="endArrow=none;html=1;rounded=0;entryX=0.36;entryY=0;entryDx=0;entryDy=0;entryPerimeter=0;exitX=1;exitY=1;exitDx=0;exitDy=0;" edge="1" parent="1" source="twWEcnRU9X74Tp9LB-RC-59" target="twWEcnRU9X74Tp9LB-RC-6">
          <mxGeometry relative="1" as="geometry">
            <mxPoint x="660" y="560" as="sourcePoint" />
            <mxPoint x="690" y="610" as="targetPoint" />
          </mxGeometry>
        </mxCell>
        <mxCell id="twWEcnRU9X74Tp9LB-RC-51" value="" style="endArrow=none;html=1;rounded=0;entryX=0.183;entryY=0.3;entryDx=0;entryDy=0;exitX=1;exitY=0.75;exitDx=0;exitDy=0;entryPerimeter=0;" edge="1" parent="1" source="twWEcnRU9X74Tp9LB-RC-1" target="twWEcnRU9X74Tp9LB-RC-59">
          <mxGeometry relative="1" as="geometry">
            <mxPoint x="320" y="330" as="sourcePoint" />
            <mxPoint x="515" y="522.5" as="targetPoint" />
          </mxGeometry>
        </mxCell>
        <mxCell id="twWEcnRU9X74Tp9LB-RC-52" value="" style="resizable=0;html=1;whiteSpace=wrap;align=left;verticalAlign=bottom;" connectable="0" vertex="1" parent="twWEcnRU9X74Tp9LB-RC-51">
          <mxGeometry x="-1" relative="1" as="geometry" />
        </mxCell>
        <mxCell id="twWEcnRU9X74Tp9LB-RC-58" value="" style="edgeStyle=orthogonalEdgeStyle;rounded=0;orthogonalLoop=1;jettySize=auto;html=1;endArrow=none;endFill=0;" edge="1" parent="1" source="twWEcnRU9X74Tp9LB-RC-56" target="twWEcnRU9X74Tp9LB-RC-1">
          <mxGeometry relative="1" as="geometry" />
        </mxCell>
        <mxCell id="twWEcnRU9X74Tp9LB-RC-56" value="Vende" style="shape=rhombus;perimeter=rhombusPerimeter;whiteSpace=wrap;html=1;align=center;" vertex="1" parent="1">
          <mxGeometry x="360" y="380" width="120" height="60" as="geometry" />
        </mxCell>
        <mxCell id="twWEcnRU9X74Tp9LB-RC-59" value="Tiene" style="shape=rhombus;perimeter=rhombusPerimeter;whiteSpace=wrap;html=1;align=center;" vertex="1" parent="1">
          <mxGeometry x="500" y="490" width="120" height="90" as="geometry" />
        </mxCell>
        <mxCell id="twWEcnRU9X74Tp9LB-RC-68" value="" style="edgeStyle=orthogonalEdgeStyle;rounded=0;orthogonalLoop=1;jettySize=auto;html=1;exitX=0;exitY=0.5;exitDx=0;exitDy=0;endArrow=none;endFill=0;" edge="1" parent="1" source="twWEcnRU9X74Tp9LB-RC-61" target="twWEcnRU9X74Tp9LB-RC-5">
          <mxGeometry relative="1" as="geometry">
            <Array as="points">
              <mxPoint x="430" y="340" />
              <mxPoint x="430" y="350" />
            </Array>
          </mxGeometry>
        </mxCell>
        <mxCell id="twWEcnRU9X74Tp9LB-RC-61" value="Posee" style="shape=rhombus;perimeter=rhombusPerimeter;whiteSpace=wrap;html=1;align=center;" vertex="1" parent="1">
          <mxGeometry x="440" y="320" width="90" height="40" as="geometry" />
        </mxCell>
        <mxCell id="twWEcnRU9X74Tp9LB-RC-65" value="" style="endArrow=none;html=1;rounded=0;entryX=0;entryY=0.5;entryDx=0;entryDy=0;" edge="1" parent="1" source="twWEcnRU9X74Tp9LB-RC-61" target="twWEcnRU9X74Tp9LB-RC-3">
          <mxGeometry relative="1" as="geometry">
            <mxPoint x="330" y="369.5" as="sourcePoint" />
            <mxPoint x="540" y="370" as="targetPoint" />
          </mxGeometry>
        </mxCell>
        <mxCell id="twWEcnRU9X74Tp9LB-RC-66" value="1" style="resizable=0;html=1;whiteSpace=wrap;align=left;verticalAlign=bottom;" connectable="0" vertex="1" parent="twWEcnRU9X74Tp9LB-RC-65">
          <mxGeometry x="-1" relative="1" as="geometry">
            <mxPoint x="-210" y="1" as="offset" />
          </mxGeometry>
        </mxCell>
        <mxCell id="twWEcnRU9X74Tp9LB-RC-67" value="0...1" style="resizable=0;html=1;whiteSpace=wrap;align=right;verticalAlign=bottom;" connectable="0" vertex="1" parent="twWEcnRU9X74Tp9LB-RC-65">
          <mxGeometry x="1" relative="1" as="geometry">
            <mxPoint x="-10" y="20" as="offset" />
          </mxGeometry>
        </mxCell>
        <mxCell id="twWEcnRU9X74Tp9LB-RC-75" value="" style="edgeStyle=orthogonalEdgeStyle;rounded=0;orthogonalLoop=1;jettySize=auto;html=1;endArrow=none;endFill=0;" edge="1" parent="1" target="twWEcnRU9X74Tp9LB-RC-5">
          <mxGeometry relative="1" as="geometry">
            <mxPoint x="240" y="260" as="sourcePoint" />
            <Array as="points">
              <mxPoint x="240" y="270" />
            </Array>
          </mxGeometry>
        </mxCell>
        <mxCell id="twWEcnRU9X74Tp9LB-RC-70" value="Puede Haber" style="shape=rhombus;perimeter=rhombusPerimeter;whiteSpace=wrap;html=1;align=center;" vertex="1" parent="1">
          <mxGeometry x="190" y="210" width="120" height="60" as="geometry" />
        </mxCell>
        <mxCell id="twWEcnRU9X74Tp9LB-RC-72" value="" style="endArrow=none;html=1;rounded=0;entryX=0;entryY=0.75;entryDx=0;entryDy=0;exitX=1;exitY=0;exitDx=0;exitDy=0;" edge="1" parent="1" source="twWEcnRU9X74Tp9LB-RC-70" target="twWEcnRU9X74Tp9LB-RC-4">
          <mxGeometry relative="1" as="geometry">
            <mxPoint x="250" y="210" as="sourcePoint" />
            <mxPoint x="410" y="210" as="targetPoint" />
            <Array as="points">
              <mxPoint x="280" y="170" />
            </Array>
          </mxGeometry>
        </mxCell>
        <mxCell id="twWEcnRU9X74Tp9LB-RC-73" value="1...n" style="resizable=0;html=1;whiteSpace=wrap;align=left;verticalAlign=bottom;" connectable="0" vertex="1" parent="twWEcnRU9X74Tp9LB-RC-72">
          <mxGeometry x="-1" relative="1" as="geometry">
            <mxPoint x="-80" y="105" as="offset" />
          </mxGeometry>
        </mxCell>
        <mxCell id="twWEcnRU9X74Tp9LB-RC-74" value="1" style="resizable=0;html=1;whiteSpace=wrap;align=right;verticalAlign=bottom;" connectable="0" vertex="1" parent="twWEcnRU9X74Tp9LB-RC-72">
          <mxGeometry x="1" relative="1" as="geometry">
            <mxPoint y="29" as="offset" />
          </mxGeometry>
        </mxCell>
        <mxCell id="twWEcnRU9X74Tp9LB-RC-79" value="" style="edgeStyle=orthogonalEdgeStyle;rounded=0;orthogonalLoop=1;jettySize=auto;html=1;endArrow=none;endFill=0;" edge="1" parent="1" source="twWEcnRU9X74Tp9LB-RC-78" target="twWEcnRU9X74Tp9LB-RC-56">
          <mxGeometry relative="1" as="geometry" />
        </mxCell>
        <mxCell id="twWEcnRU9X74Tp9LB-RC-78" value="Precio" style="ellipse;whiteSpace=wrap;html=1;align=center;" vertex="1" parent="1">
          <mxGeometry x="510" y="420" width="100" height="40" as="geometry" />
        </mxCell>
      </root>
    </mxGraphModel>
  </diagram>
</mxfile>
